<svg width="400" height="305" viewBox="0 0 400 305" fill="none" xmlns="http://www.w3.org/2000/svg">
<g clip-path="url(#clip0_1996_1391)">
<path d="M160.06 63.1113H158.601V23.1364C158.601 20.0981 158.002 17.0895 156.84 14.2825C155.677 11.4755 153.973 8.92492 151.824 6.77651C149.676 4.62809 147.125 2.92388 144.318 1.76116C141.511 0.598447 138.503 2.5743e-06 135.465 0H50.7722C44.636 -1.16976e-05 38.7512 2.43755 34.4123 6.77646C30.0733 11.1154 27.6358 17.0002 27.6357 23.1363V242.442C27.6357 245.48 28.2342 248.489 29.3969 251.296C30.5596 254.103 32.2638 256.653 34.4122 258.802C36.5606 260.95 39.1112 262.654 41.9182 263.817C44.7252 264.98 47.7338 265.578 50.7721 265.578H135.464C141.601 265.578 147.485 263.141 151.824 258.802C156.163 254.463 158.601 248.578 158.601 242.442V91.5662H160.06V63.1113Z" fill="#3F3D56"/>
<path d="M136.398 6.01953H125.343C125.851 7.26596 126.045 8.61829 125.908 9.95738C125.77 11.2965 125.306 12.5813 124.555 13.6985C123.804 14.8158 122.79 15.7312 121.602 16.3642C120.414 16.9973 119.089 17.3284 117.742 17.3285H69.2233C67.8771 17.3284 66.5517 16.9973 65.3637 16.3643C64.1757 15.7312 63.1616 14.8158 62.4108 13.6985C61.6599 12.5813 61.1953 11.2965 61.058 9.95739C60.9206 8.61829 61.1147 7.26596 61.6231 6.01953H51.2976C49.0286 6.01953 46.7818 6.46644 44.6855 7.33474C42.5893 8.20304 40.6846 9.47572 39.0801 11.0801C37.4757 12.6845 36.203 14.5893 35.3347 16.6855C34.4664 18.7818 34.0195 21.0285 34.0195 23.2975V242.281C34.0195 244.55 34.4664 246.797 35.3347 248.893C36.203 250.99 37.4757 252.894 39.0801 254.499C40.6845 256.103 42.5893 257.376 44.6855 258.244C46.7818 259.112 49.0285 259.559 51.2975 259.559H136.398C138.667 259.559 140.913 259.112 143.01 258.244C145.106 257.376 147.011 256.103 148.615 254.499C150.22 252.894 151.492 250.99 152.361 248.893C153.229 246.797 153.676 244.55 153.676 242.281V23.2975C153.676 21.0285 153.229 18.7818 152.361 16.6855C151.492 14.5893 150.22 12.6845 148.615 11.0801C147.011 9.47572 145.106 8.20304 143.01 7.33474C140.913 6.46644 138.667 6.01953 136.398 6.01953Z" fill="white"/>
<path d="M187.206 265.616H0.490067C0.360093 265.616 0.235442 265.564 0.143537 265.472C0.0516315 265.38 0 265.256 0 265.126C0 264.996 0.0516315 264.871 0.143537 264.779C0.235442 264.687 0.360093 264.636 0.490067 264.636H187.206C187.335 264.636 187.46 264.687 187.552 264.779C187.644 264.871 187.696 264.996 187.696 265.126C187.696 265.256 187.644 265.38 187.552 265.472C187.46 265.564 187.335 265.616 187.206 265.616Z" fill="#CBCBCB"/>
<path d="M93.8481 169.406C116.704 169.406 135.232 150.878 135.232 128.022C135.232 105.166 116.704 86.6377 93.8481 86.6377C70.9922 86.6377 52.4639 105.166 52.4639 128.022C52.4639 150.878 70.9922 169.406 93.8481 169.406Z" fill="#1995AD"/>
<path d="M89.7469 143.809C88.8159 143.81 87.9096 143.509 87.1647 142.951L87.1185 142.916L77.3926 135.476C76.9422 135.131 76.5642 134.7 76.2802 134.209C75.9962 133.717 75.8117 133.175 75.7374 132.612C75.6631 132.049 75.7003 131.477 75.847 130.929C75.9936 130.381 76.2469 129.867 76.5922 129.416C76.9375 128.966 77.3682 128.588 77.8596 128.304C78.3511 128.02 78.8936 127.835 79.4563 127.761C80.019 127.687 80.5908 127.724 81.1391 127.871C81.6875 128.017 82.2015 128.27 82.652 128.616L88.9516 133.447L103.838 114.026C104.183 113.575 104.614 113.198 105.105 112.914C105.596 112.63 106.138 112.445 106.701 112.371C107.263 112.297 107.835 112.334 108.383 112.481C108.931 112.627 109.445 112.88 109.895 113.226L109.896 113.227L109.804 113.355L109.899 113.227C110.807 113.925 111.402 114.955 111.551 116.091C111.701 117.226 111.394 118.375 110.698 119.285L93.1885 142.118C92.7834 142.644 92.2625 143.07 91.6663 143.362C91.0702 143.655 90.4147 143.806 89.7507 143.804L89.7469 143.809Z" fill="white"/>
<path d="M340.226 269.684C340.729 268.87 341.322 268.114 341.993 267.432C342.27 267.145 342.562 266.874 342.862 266.611C344.692 264.983 346.923 263.871 349.325 263.39C351.727 262.909 354.214 263.077 356.529 263.876C358.845 264.674 360.906 266.076 362.501 267.935C364.095 269.795 365.166 272.045 365.603 274.456C367.624 266.981 362.362 259.619 357.072 253.963C351.78 248.31 345.731 242.108 345.761 234.362C345.776 230.051 347.885 226.206 351.068 223.355C351.166 223.268 351.265 223.182 351.365 223.099C355.213 219.8 360.163 218.075 365.228 218.267C374.637 218.771 382.852 225.095 388.557 232.596C397.741 244.665 401.765 261.606 395.336 275.345C389.681 287.428 377.62 294.604 365.312 300.372C363.593 301.178 361.878 301.959 360.166 302.716C360.154 302.719 360.142 302.727 360.131 302.73C360.048 302.766 359.966 302.803 359.889 302.84C359.535 302.996 359.182 303.152 358.832 303.306L358.994 303.412L359.5 303.739C359.324 303.633 359.151 303.53 358.975 303.424C358.923 303.392 358.868 303.361 358.816 303.329C352.771 299.702 346.641 295.864 342.465 290.201C338.133 284.322 336.392 275.9 340.226 269.684Z" fill="#F1F1F1"/>
<path d="M380.56 256.029C381.899 259.074 382.786 262.298 383.194 265.6C383.515 268.543 383.395 271.519 382.836 274.427C381.636 280.403 379.017 286.004 375.202 290.757C372.324 294.366 369 297.597 365.312 300.372C363.593 301.178 361.878 301.959 360.166 302.716C360.154 302.719 360.142 302.727 360.131 302.73C360.048 302.767 359.966 302.803 359.889 302.84C359.535 302.996 359.182 303.152 358.832 303.306L358.994 303.412L359.5 303.74C359.324 303.633 359.151 303.53 358.975 303.424C358.923 303.392 358.868 303.362 358.816 303.329C360.146 298.676 360.342 293.771 359.386 289.026C358.431 284.281 356.352 279.835 353.324 276.059C350.279 272.331 346.397 269.375 341.993 267.432C342.27 267.145 342.562 266.875 342.862 266.612C344.559 267.39 346.183 268.318 347.716 269.383C353.198 273.172 357.315 278.626 359.457 284.937C361.369 290.663 361.608 296.815 360.146 302.672C360.449 302.474 360.754 302.27 361.05 302.068C366.682 298.27 371.872 293.708 375.782 288.115C379.154 283.388 381.311 277.904 382.065 272.146C382.814 265.857 381.241 259.672 378.433 254.06C375.332 248.057 371.425 242.505 366.82 237.56C362.195 232.478 356.965 227.981 351.248 224.17C351.119 224.083 351.028 223.95 350.995 223.798C350.962 223.647 350.988 223.488 351.068 223.355C351.129 223.234 351.236 223.142 351.365 223.099C351.43 223.082 351.499 223.08 351.565 223.094C351.631 223.107 351.693 223.135 351.747 223.176C352.453 223.647 353.153 224.122 353.844 224.612C359.602 228.689 364.831 233.465 369.411 238.831C373.837 244.004 377.864 249.751 380.56 256.029Z" fill="white"/>
<path d="M257.305 19.2155C262.159 19.2155 266.094 15.2806 266.094 10.4266C266.094 5.57261 262.159 1.6377 257.305 1.6377C252.452 1.6377 248.517 5.57261 248.517 10.4266C248.517 15.2806 252.452 19.2155 257.305 19.2155Z" fill="#F1F1F1"/>
<path d="M366.591 136.832C369.55 136.832 371.949 134.433 371.949 131.474C371.949 128.514 369.55 126.115 366.591 126.115C363.631 126.115 361.232 128.514 361.232 131.474C361.232 134.433 363.631 136.832 366.591 136.832Z" fill="#F1F1F1"/>
<path d="M209.769 151.534C212.728 151.534 215.127 149.135 215.127 146.176C215.127 143.216 212.728 140.817 209.769 140.817C206.809 140.817 204.41 143.216 204.41 146.176C204.41 149.135 206.809 151.534 209.769 151.534Z" fill="#F1F1F1"/>
<path d="M212.795 304.332H399.51C399.64 304.332 399.765 304.28 399.857 304.188C399.949 304.096 400 303.972 400 303.842C400 303.712 399.949 303.587 399.857 303.495C399.765 303.403 399.64 303.352 399.51 303.352H212.795C212.665 303.352 212.54 303.403 212.448 303.495C212.356 303.587 212.305 303.712 212.305 303.842C212.305 303.972 212.356 304.096 212.448 304.188C212.54 304.28 212.665 304.332 212.795 304.332Z" fill="#CBCBCB"/>
<path d="M378.905 47.3578C379.15 45.6171 378.748 43.847 377.776 42.3828C376.803 40.9186 375.327 39.8621 373.627 39.4135C371.928 38.9649 370.122 39.1554 368.554 39.9488C366.985 40.7422 365.762 42.0835 365.116 43.7184L349.965 61.0885L354.411 73.5052L369.648 53.209C370.643 53.5275 371.695 53.6241 372.73 53.492C373.766 53.3599 374.76 53.0024 375.643 52.4445C376.525 51.8867 377.275 51.1421 377.838 50.2632C378.402 49.3843 378.766 48.3926 378.905 47.3578Z" fill="#FFB7B7"/>
<path d="M316.099 114.944L366.394 61.2678L359.61 50.4824L296.527 103.833L316.099 114.944Z" fill="#3F3D56"/>
<path d="M304.874 82.3317C314.617 82.3317 322.516 74.4329 322.516 64.6893C322.516 54.9456 314.617 47.0469 304.874 47.0469C295.13 47.0469 287.231 54.9456 287.231 64.6893C287.231 74.4329 295.13 82.3317 304.874 82.3317Z" fill="#2F2E41"/>
<path d="M306.292 54.722C310.088 50.8722 314.682 47.9014 319.751 46.0188C323.004 44.8135 326.545 44.0688 329.947 44.7533C333.348 45.4378 336.565 47.7908 337.513 51.128C338.289 53.8568 337.488 56.795 336.284 59.3638C335.08 61.9326 333.472 64.3147 332.498 66.9794C331.505 69.6983 331.206 72.6223 331.629 75.486C332.052 78.3496 333.184 81.0623 334.921 83.3777C336.659 85.6931 338.947 87.5379 341.578 88.7447C344.209 89.9515 347.1 90.482 349.988 90.2881C346.647 90.7362 343.566 92.3067 340.299 93.1426C337.033 93.9786 333.177 93.9219 330.75 91.5817C328.181 89.1056 328.13 85.0799 328.254 81.5145C328.439 76.2144 328.623 70.9144 328.808 65.6143C328.902 62.9113 328.983 60.1218 328.008 57.599C327.033 55.0762 324.716 52.867 322.012 52.89C319.962 52.9074 318.148 54.1491 316.504 55.3737C314.86 56.5982 313.121 57.9047 311.079 58.0869C309.037 58.269 306.706 56.7581 306.859 54.714L306.292 54.722Z" fill="#2F2E41"/>
<path d="M237.867 183.149C236.173 183.62 234.366 183.453 232.787 182.68C231.209 181.907 229.968 180.581 229.301 178.955C228.635 177.328 228.587 175.514 229.169 173.855C229.751 172.196 230.921 170.808 232.457 169.954L247.699 152.663L260.59 155.448L242.459 173.207C242.904 174.151 243.138 175.182 243.142 176.226C243.146 177.27 242.922 178.302 242.484 179.25C242.046 180.198 241.406 181.039 240.608 181.712C239.811 182.386 238.875 182.876 237.867 183.149H237.867Z" fill="#FFB7B7"/>
<path d="M288.011 121.245L250.024 168.928L238.444 163.612L283.094 94.0986L288.011 121.245Z" fill="#3F3D56"/>
<path d="M257.701 265.23L248.647 265.088L249.736 295.945H257.699L257.701 265.23Z" fill="#FFB7B7"/>
<path d="M259.73 293.345L244.048 293.345H244.047C241.396 293.345 238.854 294.398 236.98 296.272C235.106 298.146 234.053 300.688 234.053 303.339V303.664L259.73 303.665L259.73 293.345Z" fill="#2F2E41"/>
<path d="M317.644 257.045L307.754 263.394L327.537 287.194L334.238 282.892L317.644 257.045Z" fill="#FFB7B7"/>
<path d="M334.543 279.607L321.346 288.08L321.345 288.08C319.115 289.513 317.545 291.772 316.98 294.362C316.416 296.951 316.903 299.659 318.335 301.89L318.51 302.163L340.118 288.291L334.543 279.607Z" fill="#2F2E41"/>
<path d="M321.168 162.82C321.168 162.82 299.193 89.8356 292.131 88.8493C285.069 87.863 273.691 107.576 273.691 107.576C258.939 126.399 243.727 187.369 243.727 187.369C243.727 187.369 269.086 188.956 287.623 198.819C306.161 208.682 328.038 198.32 328.038 198.32L321.168 162.82Z" fill="#3F3D56"/>
<path opacity="0.1" d="M321.168 162.82C321.168 162.82 299.193 89.8352 292.131 88.8489C285.069 87.8627 276.581 107.776 276.581 107.776C269.23 138.16 243.727 187.369 243.727 187.369C243.727 187.369 269.086 188.956 287.623 198.819C306.161 208.681 328.038 198.319 328.038 198.319L321.168 162.82Z" fill="black"/>
<path d="M303.139 140.983V177.658L307.455 230.783L329.018 270.968L318.727 278.319L289.323 240.094L277.693 202.139L259.429 286.16L245.707 285.18L255.237 168.686L273.321 135.896L303.139 140.983Z" fill="#2F2E41"/>
<path d="M280.983 105.511C274.123 112.372 280.493 119.723 280.493 119.723L272.652 137.365L303.527 145.696L314.316 97.4845L306.965 89.6434C292.263 89.1533 292.255 88.8486 292.255 88.8486C289.679 91.3695 280.983 105.511 280.983 105.511Z" fill="#1995AD"/>
<path d="M315.559 92.4901C314.157 91.455 312.563 90.7084 310.87 90.2936C309.178 89.8788 307.419 89.804 305.697 90.0735C303.976 90.343 302.324 90.9515 300.839 91.8638C299.354 92.776 298.065 93.9738 297.046 95.3879C289.284 106.195 282.107 123.646 291.996 145.41C307.873 180.356 321.691 198.246 327.308 198.244C327.553 198.246 327.797 198.208 328.03 198.131C331.487 196.958 336.486 191.107 337.391 185.951C337.715 184.106 337.638 181.536 335.431 179.771C329.092 174.7 317.711 158.913 314.161 138.133C312.199 126.65 316.004 116.191 319.541 109.439C321.035 106.645 321.472 103.407 320.772 100.317C320.072 97.2269 318.282 94.4928 315.73 92.6157V92.6157L315.559 92.4901Z" fill="#3F3D56"/>
<path d="M305.782 80.5976C312.075 77.1572 314.388 69.2664 310.948 62.973C307.507 56.6795 299.617 54.3665 293.323 57.8069C287.03 61.2472 284.717 69.138 288.157 75.4315C291.597 81.725 299.488 84.0379 305.782 80.5976Z" fill="#FFB7B7"/>
<path d="M281.288 68.2208H300.041L300.233 65.5284L301.195 68.2208H304.082L304.463 62.8847L306.369 68.2208H311.956V67.9564C311.952 64.2415 310.474 60.6799 307.847 58.053C305.221 55.4261 301.659 53.9485 297.944 53.9443H295.3C291.585 53.9485 288.024 55.4261 285.397 58.053C282.77 60.6799 281.292 64.2415 281.288 67.9564V68.2208Z" fill="#2F2E41"/>
<path d="M309.123 77.8978L317.126 75.3011V55.8672H302.01L302.384 56.2408C307.591 61.4409 313.382 79.89 309.123 77.8978Z" fill="#2F2E41"/>
</g>
<defs>
<clipPath id="clip0_1996_1391">
<rect width="400" height="304.331" fill="white"/>
</clipPath>
</defs>
</svg>
