<svg width="411" height="341" viewBox="0 0 411 341" fill="none" xmlns="http://www.w3.org/2000/svg">
<path d="M190.634 341C284.445 341 360.499 264.946 360.499 170.8C360.499 76.6535 284.445 0.599609 190.634 0.599609C96.8235 0.599609 20.7695 76.6535 20.7695 170.8C20.7695 264.946 96.8235 341 190.634 341Z" fill="#EAEEF9"/>
<path d="M379.938 100.776C387.524 100.776 393.674 94.6259 393.674 87.0393C393.674 79.4528 387.524 73.3027 379.938 73.3027C372.351 73.3027 366.201 79.4528 366.201 87.0393C366.201 94.6259 372.351 100.776 379.938 100.776Z" fill="#FE8846"/>
<path d="M400.035 46.8345C405.216 46.8345 409.416 42.6344 409.416 37.4534C409.416 32.2723 405.216 28.0723 400.035 28.0723C394.854 28.0723 390.654 32.2723 390.654 37.4534C390.654 42.6344 394.854 46.8345 400.035 46.8345Z" fill="#FE8846"/>
<path d="M9.3811 110.493C14.5621 110.493 18.7622 106.293 18.7622 101.112C18.7622 95.9305 14.5621 91.7305 9.3811 91.7305C4.20006 91.7305 0 95.9305 0 101.112C0 106.293 4.20006 110.493 9.3811 110.493Z" fill="#FE8846"/>
<path d="M26.8068 314.532C36.4287 314.532 44.2289 306.731 44.2289 297.11C44.2289 287.488 36.4287 279.688 26.8068 279.688C17.1849 279.688 9.38477 287.488 9.38477 297.11C9.38477 306.731 17.1849 314.532 26.8068 314.532Z" fill="#FE8846"/>
<g filter="url(#filter0_d_1869_1173)">
<path d="M325.715 278.244H56.2332C39.8373 278.244 26.8047 265.212 26.8047 248.816V93.6854C26.8047 77.2895 39.8373 64.2568 56.2332 64.2568H325.715C342.111 64.2568 355.143 77.2895 355.143 93.6854V248.816C355.143 265.212 342.111 278.244 325.715 278.244Z" fill="url(#paint0_linear_1869_1173)"/>
</g>
<path d="M110.048 229.897H67.166C63.3823 229.897 60.4395 226.955 60.4395 223.171C60.4395 219.387 63.3823 216.444 67.166 216.444H110.048C113.831 216.444 116.774 219.387 116.774 223.171C116.774 226.955 113.831 229.897 110.048 229.897Z" fill="#D5DDEA"/>
<path d="M179.411 229.897H136.529C132.746 229.897 129.803 226.955 129.803 223.171C129.803 219.387 132.746 216.444 136.529 216.444H179.411C183.195 216.444 186.137 219.387 186.137 223.171C186.137 226.955 183.195 229.897 179.411 229.897Z" fill="#D5DDEA"/>
<path d="M248.782 229.897H205.9C202.117 229.897 199.174 226.955 199.174 223.171C199.174 219.387 202.117 216.444 205.9 216.444H248.782C252.566 216.444 255.508 219.387 255.508 223.171C255.508 226.955 252.566 229.897 248.782 229.897Z" fill="#D5DDEA"/>
<path d="M318.145 229.897H275.264C271.48 229.897 268.537 226.955 268.537 223.171C268.537 219.387 271.48 216.444 275.264 216.444H318.145C321.929 216.444 324.872 219.387 324.872 223.171C324.872 226.955 321.929 229.897 318.145 229.897Z" fill="#D5DDEA"/>
<path d="M302.596 149.179C316.527 149.179 327.82 137.886 327.82 123.955C327.82 110.024 316.527 98.7305 302.596 98.7305C288.664 98.7305 277.371 110.024 277.371 123.955C277.371 137.886 288.664 149.179 302.596 149.179Z" fill="#989FB0"/>
<path d="M269.379 149.179C283.31 149.179 294.603 137.886 294.603 123.955C294.603 110.024 283.31 98.7305 269.379 98.7305C255.448 98.7305 244.154 110.024 244.154 123.955C244.154 137.886 255.448 149.179 269.379 149.179Z" fill="#D5DDEA"/>
<path d="M113.831 157.167H66.7456C63.3823 157.167 60.4395 154.224 60.4395 150.861V120.591C60.4395 117.228 63.3823 114.285 66.7456 114.285H113.411C116.774 114.285 119.717 117.228 119.717 120.591V150.861C120.137 154.224 117.195 157.167 113.831 157.167Z" fill="#D5DDEA"/>
<path d="M274.475 286.837L329.212 200.206C335.17 192.077 347.644 192.077 353.602 200.206L408.339 286.837C414.111 294.605 408.339 305.623 398.472 305.623H284.529C274.475 305.443 268.704 294.605 274.475 286.837Z" fill="url(#paint1_linear_1869_1173)"/>
<path d="M341.406 222.385C336.19 222.385 332.133 226.97 332.52 232.353L335.417 264.648C335.61 267.838 338.315 270.429 341.406 270.429C344.497 270.429 347.201 267.838 347.394 264.648L350.292 232.353C350.678 226.771 346.622 222.385 341.406 222.385Z" fill="white"/>
<path d="M341.406 276.41C337.542 276.41 334.451 279.6 334.451 283.587C334.451 287.574 337.542 290.764 341.406 290.764C345.269 290.764 348.36 287.574 348.36 283.587C348.36 279.6 345.269 276.41 341.406 276.41Z" fill="white"/>
<defs>
<filter id="filter0_d_1869_1173" x="4.80469" y="53.2568" width="372.339" height="257.987" filterUnits="userSpaceOnUse" color-interpolation-filters="sRGB">
<feFlood flood-opacity="0" result="BackgroundImageFix"/>
<feColorMatrix in="SourceAlpha" type="matrix" values="0 0 0 0 0 0 0 0 0 0 0 0 0 0 0 0 0 0 127 0" result="hardAlpha"/>
<feOffset dy="11"/>
<feGaussianBlur stdDeviation="11"/>
<feColorMatrix type="matrix" values="0 0 0 0 0.397708 0 0 0 0 0.47749 0 0 0 0 0.575 0 0 0 0.27 0"/>
<feBlend mode="normal" in2="BackgroundImageFix" result="effect1_dropShadow_1869_1173"/>
<feBlend mode="normal" in="SourceGraphic" in2="effect1_dropShadow_1869_1173" result="shape"/>
</filter>
<linearGradient id="paint0_linear_1869_1173" x1="190.867" y1="59.3071" x2="190.867" y2="280.551" gradientUnits="userSpaceOnUse">
<stop stop-color="#FDFEFF"/>
<stop offset="0.9964" stop-color="#ECF0F5"/>
</linearGradient>
<linearGradient id="paint1_linear_1869_1173" x1="272.118" y1="252.798" x2="410.662" y2="252.798" gradientUnits="userSpaceOnUse">
<stop stop-color="#FE8846"/>
<stop offset="1" stop-color="#D05713"/>
</linearGradient>
</defs>
</svg>
