<svg width="478" height="331" viewBox="0 0 478 331" fill="none" xmlns="http://www.w3.org/2000/svg">
<path d="M226.3 302.309C306.457 302.309 371.442 237.324 371.442 156.88C371.442 76.4361 306.171 11.4512 226.3 11.4512C146.142 11.4512 81.1572 76.4361 81.1572 156.88C81.1572 237.324 146.142 302.309 226.3 302.309Z" fill="#EAEEF9"/>
<path d="M360.849 61.836C367.331 61.836 372.586 56.581 372.586 50.0987C372.586 43.6163 367.331 38.3613 360.849 38.3613C354.366 38.3613 349.111 43.6163 349.111 50.0987C349.111 56.581 354.366 61.836 360.849 61.836Z" fill="#DE5753"/>
<path d="M378.027 16.0315C382.454 16.0315 386.043 12.4427 386.043 8.01576C386.043 3.58878 382.454 0 378.027 0C373.6 0 370.012 3.58878 370.012 8.01576C370.012 12.4427 373.6 16.0315 378.027 16.0315Z" fill="#DE5753"/>
<path d="M87.7413 61.5491C92.1683 61.5491 95.7571 57.9603 95.7571 53.5333C95.7571 49.1064 92.1683 45.5176 87.7413 45.5176C83.3144 45.5176 79.7256 49.1064 79.7256 53.5333C79.7256 57.9603 83.3144 61.5491 87.7413 61.5491Z" fill="#DE5753"/>
<path d="M38.7887 216.139C47.0103 216.139 53.6751 209.474 53.6751 201.253C53.6751 193.031 47.0103 186.366 38.7887 186.366C30.5672 186.366 23.9023 193.031 23.9023 201.253C23.9023 209.474 30.5672 216.139 38.7887 216.139Z" fill="#DE5753"/>
<path d="M301.681 116.57C300.117 123.35 297.77 129.869 294.902 135.866C287.34 149.946 276.128 161.419 262.047 168.46C247.445 176.021 230.236 178.629 212.765 175.239C172.089 166.634 145.753 127 154.358 86.0627C162.962 45.1251 202.335 18.7894 243.273 27.3941C257.875 30.5231 270.652 37.5634 281.343 47.7326C299.074 65.985 306.635 91.7992 301.681 116.57Z" fill="url(#paint0_linear_1869_1194)"/>
<g filter="url(#filter0_d_1869_1194)">
<path d="M210.502 213.656C210.156 213.656 210.156 214.002 209.81 214.002L177.605 228.892C174.835 230.277 171.719 228.892 170.333 226.122C168.948 223.352 170.333 220.235 173.104 218.85L195.266 208.808L188.34 206.384L199.421 174.872L175.181 161.713L183.146 130.202L149.903 122.583L160.984 96.6122L154.404 89.6865L60.9081 132.626C48.7882 138.166 43.2477 152.71 49.1345 164.83L101.769 280.488C107.31 292.608 121.854 298.149 133.974 292.262L226.431 250.015L231.972 220.581L210.502 213.656Z" fill="url(#paint1_linear_1869_1194)"/>
</g>
<path d="M170.332 226.122C171.718 228.893 174.834 230.278 177.604 228.893L209.809 214.002C210.155 214.002 210.155 213.656 210.501 213.656L195.265 208.462L173.103 218.504C170.332 220.236 168.947 223.352 170.332 226.122Z" fill="#D5DDEA"/>
<path d="M157.867 237.896L125.663 252.786C122.893 254.171 119.776 252.786 118.391 250.016C117.006 247.246 118.391 244.129 121.161 242.744L153.366 227.854C156.136 226.469 159.252 227.854 160.638 230.624C162.023 233.394 160.638 236.511 157.867 237.896Z" fill="#D5DDEA"/>
<g filter="url(#filter1_d_1869_1194)">
<path d="M399.943 262.459L422.712 136.855C425.164 123.502 416.32 110.922 403.127 108.778L285.912 87.9093L287.438 97.6458L263.636 112.682L286.742 137.768L261.783 158.86L274.04 183.319L246.738 202.894L251.308 208.717L262.02 210.586C264.968 211.01 266.866 213.927 266.442 216.876C265.858 219.516 263.407 221.563 260.926 221.287L274.647 239.531L253.4 260.263L371.707 281.736C385.06 284.188 397.799 275.652 399.943 262.459Z" fill="url(#paint2_linear_1869_1194)"/>
</g>
<path d="M316.668 231.837L281.891 225.649C278.943 225.224 277.045 222.307 277.47 219.359C277.894 216.41 280.811 214.512 283.76 214.937L318.536 221.125C321.484 221.55 323.382 224.467 322.958 227.415C322.533 230.364 319.616 232.262 316.668 231.837Z" fill="#D5DDEA"/>
<path d="M372.871 241.763L338.094 235.575C335.146 235.15 333.248 232.233 333.673 229.284C334.097 226.336 337.014 224.438 339.963 224.863L374.739 231.051C377.687 231.476 379.585 234.393 379.161 237.341C378.736 240.29 375.978 242.495 372.871 241.763Z" fill="#D5DDEA"/>
<path d="M395.964 157.255C397.991 145.961 390.479 135.161 379.184 133.134C367.889 131.107 357.09 138.62 355.063 149.915C353.036 161.209 360.549 172.009 371.843 174.036C383.138 176.063 393.937 168.55 395.964 157.255Z" fill="#989FB0"/>
<path d="M369.008 152.383C371.035 141.089 363.523 130.289 352.228 128.262C340.933 126.235 330.134 133.748 328.107 145.042C326.08 156.337 333.593 167.136 344.887 169.164C356.182 171.191 366.981 163.678 369.008 152.383Z" fill="#D5DDEA"/>
<path d="M266.601 217.184C267.026 214.235 265.128 211.318 262.18 210.894L251.468 209.025L261.245 221.903C263.875 221.712 266.484 219.973 266.601 217.184Z" fill="#D5DDEA"/>
<path d="M229.387 58.3584C222.347 58.3584 216.871 64.3556 217.393 71.3959L221.304 113.637C221.565 117.809 225.215 121.199 229.387 121.199C233.559 121.199 237.21 117.809 237.47 113.637L241.382 71.3959C241.903 64.0949 236.427 58.3584 229.387 58.3584Z" fill="white"/>
<path d="M229.383 129.021C224.168 129.021 219.996 133.193 219.996 138.408C219.996 143.623 224.168 147.795 229.383 147.795C234.598 147.795 238.77 143.623 238.77 138.408C238.77 133.193 234.598 129.021 229.383 129.021Z" fill="white"/>
<path d="M433.278 124.237L459.771 115.262" stroke="#A52522" stroke-width="2" stroke-miterlimit="10"/>
<path d="M427.15 104.676L454.502 72.0264" stroke="#A52522" stroke-width="2" stroke-miterlimit="10"/>
<path d="M411.607 95.7239L415.128 71.5693" stroke="#A52522" stroke-width="2" stroke-miterlimit="10"/>
<path d="M47.749 123.969L36.668 98.3438" stroke="#A52522" stroke-width="2" stroke-miterlimit="10"/>
<path d="M35.6283 136.088L1 111.502" stroke="#A52522" stroke-width="2" stroke-miterlimit="10"/>
<path d="M28.3537 152.364L3.76758 150.979" stroke="#A52522" stroke-width="2" stroke-miterlimit="10"/>
<path d="M131.236 181.239L100.146 194.995C97.9256 195.978 94.9651 194.538 93.8023 191.91L83.3374 168.258C82.1746 165.63 83.1003 162.47 85.321 161.488L116.133 147.855C118.354 146.872 121.315 148.312 122.477 150.94L132.942 174.592C134.383 177.098 133.457 180.257 131.236 181.239Z" fill="#D5DDEA"/>
<defs>
<filter id="filter0_d_1869_1194" x="24.7695" y="78.6865" width="229.202" height="248.94" filterUnits="userSpaceOnUse" color-interpolation-filters="sRGB">
<feFlood flood-opacity="0" result="BackgroundImageFix"/>
<feColorMatrix in="SourceAlpha" type="matrix" values="0 0 0 0 0 0 0 0 0 0 0 0 0 0 0 0 0 0 127 0" result="hardAlpha"/>
<feOffset dy="11"/>
<feGaussianBlur stdDeviation="11"/>
<feColorMatrix type="matrix" values="0 0 0 0 0.397708 0 0 0 0 0.47749 0 0 0 0 0.575 0 0 0 0.27 0"/>
<feBlend mode="normal" in2="BackgroundImageFix" result="effect1_dropShadow_1869_1194"/>
<feBlend mode="normal" in="SourceGraphic" in2="effect1_dropShadow_1869_1194" result="shape"/>
</filter>
<filter id="filter1_d_1869_1194" x="224.737" y="76.9092" width="220.383" height="238.247" filterUnits="userSpaceOnUse" color-interpolation-filters="sRGB">
<feFlood flood-opacity="0" result="BackgroundImageFix"/>
<feColorMatrix in="SourceAlpha" type="matrix" values="0 0 0 0 0 0 0 0 0 0 0 0 0 0 0 0 0 0 127 0" result="hardAlpha"/>
<feOffset dy="11"/>
<feGaussianBlur stdDeviation="11"/>
<feColorMatrix type="matrix" values="0 0 0 0 0.397708 0 0 0 0 0.47749 0 0 0 0 0.575 0 0 0 0.27 0"/>
<feBlend mode="normal" in2="BackgroundImageFix" result="effect1_dropShadow_1869_1194"/>
<feBlend mode="normal" in="SourceGraphic" in2="effect1_dropShadow_1869_1194" result="shape"/>
</filter>
<linearGradient id="paint0_linear_1869_1194" x1="152.642" y1="101.212" x2="303.121" y2="101.212" gradientUnits="userSpaceOnUse">
<stop stop-color="#DE5753"/>
<stop offset="1" stop-color="#A52522"/>
</linearGradient>
<linearGradient id="paint1_linear_1869_1194" x1="139.31" y1="84.9461" x2="139.31" y2="296.836" gradientUnits="userSpaceOnUse">
<stop stop-color="#FDFEFF"/>
<stop offset="0.9964" stop-color="#ECF0F5"/>
</linearGradient>
<linearGradient id="paint2_linear_1869_1194" x1="281.815" y1="84.3818" x2="384.772" y2="283.505" gradientUnits="userSpaceOnUse">
<stop stop-color="#FDFEFF"/>
<stop offset="0.9964" stop-color="#ECF0F5"/>
</linearGradient>
</defs>
</svg>
