<svg width="44" height="44" viewBox="0 0 44 44" fill="none" xmlns="http://www.w3.org/2000/svg">
<rect width="44" height="44" fill="white"/>
<path fill-rule="evenodd" clip-rule="evenodd" d="M17.4999 14.9998C15.5699 14.9998 13.9998 16.5699 13.9998 18.4999C13.9998 19.6941 14.7194 21.2199 16.1386 23.035C17.3559 24.5917 18.8269 26.0412 19.8003 27.0004L21.9999 29.1703L24.2004 27.0004C25.1741 26.0405 26.6455 24.59 27.8613 23.035C29.2804 21.2198 30 19.694 30 18.4999C30 17.5731 29.6224 16.6671 28.9641 16.0141C28.3045 15.3599 27.4297 14.9997 26.5006 14.9997L26.4702 14.9998C24.9058 15.1456 23.5168 15.984 22.6596 17.3002C22.5649 17.4235 22.4155 17.4982 22.26 17.5H21.81C21.5747 17.4991 21.356 17.3935 21.2097 17.2102C20.3682 15.9439 19.0161 15.1383 17.4999 14.9998ZM22.1898 31.5004H21.81C21.6124 31.4995 21.4191 31.4191 21.2799 31.2799L19.0002 29.0002C18.8143 28.8143 18.6113 28.6141 18.3953 28.4012C16.0033 26.0431 12 22.0963 12 18.4999C12 15.4672 14.4672 13 17.4999 13C19.208 13.0528 20.8481 13.8073 21.9999 15.07C23.1517 13.8073 24.7924 13.0528 26.4999 13C29.5326 13 31.9998 15.4672 31.9998 18.4999C31.9998 22.0963 27.9965 26.0431 25.6045 28.4012C25.3885 28.6141 25.1855 28.8143 24.9996 29.0002L22.7199 31.2799C22.5807 31.4191 22.3874 31.4995 22.1898 31.5004Z" fill="black"/>
</svg>
