<svg xmlns="http://www.w3.org/2000/svg" width="20" height="20" viewBox="0 0 20 20">
  <path id="Icon_color" data-name="Icon color" d="M10,20A10,10,0,1,1,20,10,10.011,10.011,0,0,1,10,20ZM10,2a8,8,0,1,0,8,8A8.009,8.009,0,0,0,10,2Zm.5,14h-1a.5.5,0,0,1-.5-.5V15a2,2,0,0,1-2-2v-.75a.5.5,0,0,1,.5-.5H8.25a.5.5,0,0,1,.5.5v1h2.5v-.88a.221.221,0,0,0-.09-.19L7.73,9.35A1.992,1.992,0,0,1,7,7.81V7A2,2,0,0,1,9,5V4.5A.5.5,0,0,1,9.5,4h1a.5.5,0,0,1,.5.5V5a2,2,0,0,1,2,2v.75a.5.5,0,0,1-.5.5h-.75a.5.5,0,0,1-.5-.5v-1H8.75v.88a.221.221,0,0,0,.09.19l3.43,2.83A1.992,1.992,0,0,1,13,12.19V13a2,2,0,0,1-2,2v.5A.5.5,0,0,1,10.5,16Z" fill="#fff"/>
</svg>
