<svg width="40" height="40" viewBox="0 0 40 40" fill="none" xmlns="http://www.w3.org/2000/svg">
<rect x="0.5" y="0.5" width="39" height="39" rx="19.5" fill="white"/>
<path d="M24.032 12.5C23.4105 12.4995 22.7951 12.623 22.222 12.8634C21.6489 13.1038 21.1296 13.4563 20.6945 13.9L20.0007 14.6L19.307 13.9C18.8713 13.4571 18.3518 13.1053 17.7788 12.8651C17.2058 12.625 16.5908 12.5013 15.9695 12.5013C15.3482 12.5013 14.7331 12.625 14.1601 12.8651C13.5871 13.1053 13.0676 13.4571 12.632 13.9C11.7456 14.8023 11.249 16.0165 11.249 17.2813C11.249 18.546 11.7456 19.7602 12.632 20.6625L20.0007 28.125L27.3695 20.6625C28.2558 19.7602 28.7524 18.546 28.7524 17.2813C28.7524 16.0165 28.2558 14.8023 27.3695 13.9C26.9339 13.4568 26.4145 13.1048 25.8415 12.8644C25.2685 12.6241 24.6533 12.5002 24.032 12.5Z" fill="#D11515"/>
<rect x="0.5" y="0.5" width="39" height="39" rx="19.5" stroke="#E8E8E8"/>
</svg>
