<svg width="56" height="46" viewBox="0 0 56 46" fill="none" xmlns="http://www.w3.org/2000/svg">
<path fill-rule="evenodd" clip-rule="evenodd" d="M16 35V11H40V35H16Z" fill="white" fill-opacity="0.01"/>
<path fill-rule="evenodd" clip-rule="evenodd" d="M31.0944 26.9378L32.4376 23.4216L33.7808 26.9378H31.0944ZM33.2667 21.2535H31.6084L27.8773 30.9981H29.5356L30.4642 28.5619H34.4026L35.3395 30.9981H36.9978L33.2667 21.2535ZM28.5987 25.3706L26.4927 23.3323L26.5175 23.308C27.9602 21.7326 28.9883 19.9217 29.5936 18.0053H32.023V16.3812H26.219V14.7571H24.5608V16.3812H18.7568V17.9972H28.0183C27.4628 19.5644 26.5839 21.0505 25.3899 22.3497C24.6188 21.5133 23.9804 20.5957 23.4746 19.6294H21.8163C22.4216 20.953 23.2507 22.2036 24.2872 23.3323L20.0669 27.4088L21.2442 28.5619L25.3899 24.5017L27.9685 27.0271L28.5987 25.3706Z" fill="#323940"/>
<path d="M31.0944 26.9378L30.8608 26.8486L30.7312 27.1878H31.0944V26.9378ZM32.4376 23.4216L32.6711 23.3324L32.4376 22.7211L32.204 23.3324L32.4376 23.4216ZM33.7808 26.9378V27.1878H34.1439L34.0143 26.8486L33.7808 26.9378ZM33.2667 21.2535L33.5002 21.1641L33.4387 21.0035H33.2667V21.2535ZM31.6084 21.2535V21.0035H31.4364L31.3749 21.1641L31.6084 21.2535ZM27.8773 30.9981L27.6438 30.9087L27.5139 31.2481H27.8773V30.9981ZM29.5356 30.9981V31.2481H29.7078L29.7692 31.0871L29.5356 30.9981ZM30.4642 28.5619V28.3119H30.292L30.2306 28.4729L30.4642 28.5619ZM34.4026 28.5619L34.6359 28.4722L34.5743 28.3119H34.4026V28.5619ZM35.3395 30.9981L35.1062 31.0878L35.1678 31.2481H35.3395V30.9981ZM36.9978 30.9981V31.2481H37.3612L37.2313 30.9087L36.9978 30.9981ZM28.5987 25.3706L28.8323 25.4594L28.8909 25.3055L28.7725 25.1909L28.5987 25.3706ZM26.4927 23.3323L26.3177 23.1537L26.1343 23.3334L26.3188 23.512L26.4927 23.3323ZM26.5175 23.308L26.6927 23.4868L26.7019 23.4768L26.5175 23.308ZM29.5936 18.0053V17.7553H29.4104L29.3552 17.93L29.5936 18.0053ZM32.023 18.0053V18.2553H32.273V18.0053H32.023ZM32.023 16.3812H32.273V16.1312H32.023V16.3812ZM26.219 16.3812H25.969V16.6312H26.219V16.3812ZM26.219 14.7571H26.469V14.5071H26.219V14.7571ZM24.5608 14.7571V14.5071H24.3108V14.7571H24.5608ZM24.5608 16.3812V16.6312H24.8108V16.3812H24.5608ZM18.7568 16.3812V16.1312H18.5068V16.3812H18.7568ZM18.7568 17.9972H18.5068V18.2472H18.7568V17.9972ZM28.0183 17.9972L28.2539 18.0807L28.3721 17.7472H28.0183V17.9972ZM25.3899 22.3497L25.2061 22.5192L25.3902 22.7189L25.574 22.5189L25.3899 22.3497ZM23.4746 19.6294L23.6961 19.5135L23.6259 19.3794H23.4746V19.6294ZM21.8163 19.6294V19.3794H21.4271L21.589 19.7333L21.8163 19.6294ZM24.2872 23.3323L24.4609 23.5121L24.6362 23.3428L24.4713 23.1632L24.2872 23.3323ZM20.0669 27.4088L19.8932 27.229L19.7083 27.4076L19.8919 27.5874L20.0669 27.4088ZM21.2442 28.5619L21.0693 28.7405L21.2442 28.9118L21.4192 28.7405L21.2442 28.5619ZM25.3899 24.5017L25.5648 24.3231L25.3899 24.1517L25.215 24.3231L25.3899 24.5017ZM27.9685 27.0271L27.7936 27.2057L28.0664 27.4729L28.2022 27.116L27.9685 27.0271ZM31.3279 27.027L32.6711 23.5109L32.204 23.3324L30.8608 26.8486L31.3279 27.027ZM32.204 23.5109L33.5472 27.027L34.0143 26.8486L32.6711 23.3324L32.204 23.5109ZM33.7808 26.6878H31.0944V27.1878H33.7808V26.6878ZM33.2667 21.0035H31.6084V21.5035H33.2667V21.0035ZM31.3749 21.1641L27.6438 30.9087L28.1108 31.0875L31.8419 21.3429L31.3749 21.1641ZM27.8773 31.2481H29.5356V30.7481H27.8773V31.2481ZM29.7692 31.0871L30.6978 28.651L30.2306 28.4729L29.302 30.909L29.7692 31.0871ZM30.4642 28.8119H34.4026V28.3119H30.4642V28.8119ZM34.1693 28.6517L35.1062 31.0878L35.5729 30.9083L34.6359 28.4722L34.1693 28.6517ZM35.3395 31.2481H36.9978V30.7481H35.3395V31.2481ZM37.2313 30.9087L33.5002 21.1641L33.0332 21.3429L36.7643 31.0875L37.2313 30.9087ZM28.7725 25.1909L26.6665 23.1527L26.3188 23.512L28.4248 25.5502L28.7725 25.1909ZM26.6676 23.5109L26.6925 23.4866L26.3426 23.1294L26.3177 23.1537L26.6676 23.5109ZM26.7019 23.4768C28.1693 21.8745 29.2158 20.0316 29.832 18.0806L29.3552 17.93C28.7609 19.8118 27.7511 21.5907 26.3332 23.1391L26.7019 23.4768ZM29.5936 18.2553H32.023V17.7553H29.5936V18.2553ZM32.273 18.0053V16.3812H31.773V18.0053H32.273ZM32.023 16.1312H26.219V16.6312H32.023V16.1312ZM26.469 16.3812V14.7571H25.969V16.3812H26.469ZM26.219 14.5071H24.5608V15.0071H26.219V14.5071ZM24.3108 14.7571V16.3812H24.8108V14.7571H24.3108ZM24.5608 16.1312H18.7568V16.6312H24.5608V16.1312ZM18.5068 16.3812V17.9972H19.0068V16.3812H18.5068ZM18.7568 18.2472H28.0183V17.7472H18.7568V18.2472ZM27.7826 17.9136C27.2383 19.4495 26.3768 20.9063 25.2058 22.1806L25.574 22.5189C26.791 21.1946 27.6873 19.6793 28.2539 18.0807L27.7826 17.9136ZM25.5737 22.1803C24.8178 21.3603 24.1919 20.4608 23.6961 19.5135L23.2531 19.7453C23.7688 20.7306 24.4198 21.6663 25.2061 22.5192L25.5737 22.1803ZM23.4746 19.3794H21.8163V19.8794H23.4746V19.3794ZM21.589 19.7333C22.2054 21.0814 23.0493 22.3538 24.103 23.5014L24.4713 23.1632C23.4522 22.0533 22.6378 20.8247 22.0437 19.5254L21.589 19.7333ZM24.1135 23.1525L19.8932 27.229L20.2406 27.5886L24.4609 23.5121L24.1135 23.1525ZM19.8919 27.5874L21.0693 28.7405L21.4192 28.3833L20.2418 27.2302L19.8919 27.5874ZM21.4192 28.7405L25.5648 24.6803L25.215 24.3231L21.0693 28.3833L21.4192 28.7405ZM25.215 24.6803L27.7936 27.2057L28.1434 26.8485L25.5648 24.3231L25.215 24.6803ZM28.2022 27.116L28.8323 25.4594L28.365 25.2817L27.7348 26.9383L28.2022 27.116Z" fill="white"/>
</svg>
