<svg width="18" height="17" viewBox="0 0 18 17" fill="none" xmlns="http://www.w3.org/2000/svg">
<path fill-rule="evenodd" clip-rule="evenodd" d="M2.4998 3.9996C1.39711 3.9996 0.5 3.10249 0.5 1.9998C0.5 0.89711 1.39711 0 2.4998 0C3.03433 0 3.53678 0.20808 3.9146 0.5859C4.29184 0.96405 4.4996 1.46618 4.4996 1.9998C4.4996 3.10249 3.60249 3.9996 2.4998 3.9996ZM4.0001 17.0001H1.4999C1.22447 17.0001 1.0004 16.7756 1.0004 16.4997V6.4998C1.0004 6.22437 1.22447 6.0003 1.4999 6.0003H4.0001C4.27553 6.0003 4.4996 6.22437 4.4996 6.4998V16.4997C4.4996 16.7756 4.27553 17.0001 4.0001 17.0001ZM17.5001 17.0001H14.9999C14.7245 17.0001 14.5004 16.7756 14.5004 16.4997V10.7802C14.5085 10.1832 14.253 9.61836 13.7993 9.2304C13.4368 8.92106 12.9759 8.7507 12.5015 8.7507C12.3871 8.7507 12.2724 8.76069 12.1604 8.7804C11.174 8.97841 10.4756 9.85314 10.4999 10.8603V16.4997C10.4999 16.7756 10.2758 17.0001 10.0004 17.0001H7.5002C7.22428 17.0001 6.9998 16.7756 6.9998 16.4997V6.4998C6.9998 6.22437 7.22428 6.0003 7.5002 6.0003H10.0004C10.2758 6.0003 10.4999 6.22437 10.4999 6.4998V6.9201C11.3239 6.16535 12.394 5.7501 13.5113 5.7501C13.8278 5.7501 14.1437 5.78371 14.45 5.85C15.4693 6.0902 16.385 6.67799 17.0285 7.5051C17.6718 8.33107 18.0167 9.36283 17.9996 10.4103V16.4997C17.9996 16.7756 17.7755 17.0001 17.5001 17.0001Z" fill="black"/>
</svg>
