<svg width="17" height="16" viewBox="0 0 17 16" fill="none" xmlns="http://www.w3.org/2000/svg">
<g clip-path="url(#clip0_5_1945)">
<g clip-path="url(#clip1_5_1945)">
<g clip-path="url(#clip2_5_1945)">
<path fill-rule="evenodd" clip-rule="evenodd" d="M11.9601 10.3188L16.2639 14.6226C16.4151 14.7739 16.5001 14.9792 16.5 15.1932C16.4999 15.4072 16.4148 15.6124 16.2635 15.7637C16.1121 15.915 15.9068 15.9999 15.6928 15.9998C15.4788 15.9998 15.2736 15.9147 15.1223 15.7633L10.8185 11.4595C9.53194 12.456 7.91407 12.9249 6.29403 12.7709C4.67398 12.6169 3.17346 11.8515 2.09771 10.6304C1.02196 9.40935 0.45179 7.82432 0.503197 6.19779C0.554604 4.57125 1.22372 3.02539 2.37443 1.87468C3.52514 0.723966 5.07101 0.0548478 6.69754 0.00344105C8.32408 -0.0479656 9.90911 0.522201 11.1302 1.59795C12.3513 2.6737 13.1167 4.17422 13.2707 5.79427C13.4247 7.41431 12.9558 9.03219 11.9593 10.3188H11.9601ZM6.9003 11.1995C8.17328 11.1995 9.39412 10.6938 10.2943 9.79369C11.1944 8.89356 11.7001 7.67272 11.7001 6.39974C11.7001 5.12676 11.1944 3.90592 10.2943 3.00579C9.39412 2.10565 8.17328 1.59996 6.9003 1.59996C5.62732 1.59996 4.40648 2.10565 3.50634 3.00579C2.60621 3.90592 2.10052 5.12676 2.10052 6.39974C2.10052 7.67272 2.60621 8.89356 3.50634 9.79369C4.40648 10.6938 5.62732 11.1995 6.9003 11.1995Z" fill="#737373"/>
</g>
</g>
</g>
<defs>
<clipPath id="clip0_5_1945">
<rect width="16" height="16" fill="white" transform="translate(0.5)"/>
</clipPath>
<clipPath id="clip1_5_1945">
<rect width="16" height="16" fill="white" transform="translate(0.5)"/>
</clipPath>
<clipPath id="clip2_5_1945">
<rect width="16" height="16" fill="white" transform="translate(0.5)"/>
</clipPath>
</defs>
</svg>
