<svg width="20" height="18" viewBox="0 0 20 18" fill="none" xmlns="http://www.w3.org/2000/svg">
<path fill-rule="evenodd" clip-rule="evenodd" d="M10.0098 1.9998C7.80193 1.9998 6.0057 3.79442 6.0057 6.0003V10.1601C5.85446 11.4219 5.27882 12.615 4.3848 13.5198C4.33567 13.5957 4.33562 13.694 4.3848 13.77V13.8204C4.41714 13.8905 4.48614 13.9365 4.5648 13.9401C5.80381 14.0635 6.5955 14.5622 7.36112 15.0444C8.14156 15.5359 8.87872 16.0002 10.0098 16.0002C11.1383 16.0002 11.8754 15.5375 12.6559 15.0477C13.4265 14.564 14.2234 14.0638 15.4755 13.9401C15.5532 13.9365 15.6222 13.8906 15.6555 13.8204V13.77C15.6934 13.6861 15.6778 13.588 15.6159 13.5198C14.72 12.6177 14.1511 11.4245 14.0139 10.1601V6.0003C14.0139 3.79442 12.2177 1.9998 10.0098 1.9998ZM9.9999 18.0002C9.75639 18.0002 9.51051 17.9832 9.2691 17.9496C8.56163 17.8863 7.88818 17.6779 7.2675 17.3304C6.97589 17.1792 6.69276 17.0042 6.426 16.8102C6.24021 16.6569 6.01552 16.5601 5.7762 16.5303C5.39771 16.5303 5.16856 16.6412 4.92595 16.7587C4.68069 16.8774 4.42713 17.0001 4.0041 17.0001C3.45226 17.0001 3.0033 16.5515 3.0033 16.0002C3.0033 15.3834 2.23599 15.0003 1.0008 15.0003C0.44896 15.0003 0 14.5517 0 14.0004C0 13.4486 0.44896 12.9996 1.0008 12.9996C1.67043 12.9996 2.62629 12.7602 3.37725 11.6198C3.82345 10.9422 4.0041 10.224 4.0041 10.1502C4.0041 9.83451 3.50502 9.59222 2.92714 9.31168C2.0689 8.89503 1.0008 8.37649 1.0008 7.3701C0.99812 7.00845 1.14344 6.65417 1.3995 6.3981C1.65695 6.14155 1.99886 6.00026 2.36227 6.00026L2.37239 6.0003C2.81867 6.0003 3.1532 6.23449 3.39745 6.40548C3.54455 6.50846 3.66074 6.5898 3.7539 6.5898C3.89186 6.5898 4.0041 6.47756 4.0041 6.3396V6.0003C4.0041 2.69172 6.69825 0 10.0098 0C13.3218 0 16.0164 2.69172 16.0164 6.0003V6.3396C16.0209 6.46894 16.1264 6.57451 16.2567 6.5799C16.3637 6.5799 16.4839 6.49629 16.6359 6.39044C16.8725 6.22579 17.1964 6.0003 17.6472 6.0003L17.6574 6.00026C18.0216 6.00026 18.3635 6.14155 18.6201 6.3981C18.8762 6.65327 19.0215 7.00754 19.0188 7.3701C19.0188 8.3589 17.9762 8.85838 17.1384 9.25972C16.5364 9.54816 16.0164 9.79725 16.0164 10.1502C16.0164 10.2294 16.1892 10.945 16.6431 11.6309C17.0564 12.2553 17.804 12.9996 19.0188 12.9996L18.9989 12.9996C19.5508 12.9996 19.9998 13.4495 19.9998 14.0004C19.9998 14.5517 19.5508 15.0003 18.999 15.0003C17.7644 15.0003 16.9974 15.3834 16.9974 16.0002C16.9974 16.5515 16.548 17.0001 15.9957 17.0001C15.5671 17.0001 15.3036 16.8749 15.0489 16.7539C14.8068 16.6389 14.5782 16.5303 14.2245 16.5303C13.9857 16.5599 13.7607 16.6567 13.5738 16.8102C13.307 17.0042 13.0239 17.1792 12.7323 17.3304C12.1116 17.6779 11.4382 17.8863 10.7307 17.9496C10.4893 17.9832 10.2434 18.0002 9.9999 18.0002Z" fill="black"/>
</svg>
