<svg width="21" height="18" viewBox="0 0 21 18" fill="none" xmlns="http://www.w3.org/2000/svg">
<path fill-rule="evenodd" clip-rule="evenodd" d="M11.6657 13.3009C11.7855 13.3009 11.9006 13.3447 11.9898 13.4244L15.7437 16.4322C15.8231 16.5009 15.9257 16.5402 16.0326 16.5429C16.1056 16.5429 16.1781 16.5255 16.2423 16.4925L16.5717 16.3224C16.7287 16.2376 16.8379 16.0877 16.8714 15.9111L19.4562 2.2761C19.4948 2.07793 19.4352 1.87169 19.2969 1.7244C19.2014 1.61359 19.0633 1.54799 18.918 1.5444C18.8884 1.53722 18.8582 1.5336 18.828 1.5336C18.7978 1.5336 18.7675 1.53723 18.738 1.5444L2.4975 8.622L6.9993 10.1664C7.06601 10.1982 7.1402 10.215 7.21395 10.215C7.2877 10.215 7.36192 10.1982 7.4286 10.1664L14.9751 5.3838C15.0212 5.36245 15.0702 5.35166 15.1207 5.35166C15.2276 5.35166 15.3271 5.39979 15.3936 5.4837C15.4652 5.55168 15.5016 5.64685 15.4935 5.7447C15.4899 5.84486 15.4474 5.93757 15.3738 6.0057C13.8359 7.30635 11.7402 9.20885 9.1449 11.6604C9.04366 11.7563 8.98559 11.8914 8.98559 12.0312V15.57C9.03601 15.5673 9.0846 15.5502 9.1251 15.5196L11.3409 13.4244C11.4306 13.3447 11.5459 13.3009 11.6657 13.3009ZM16.0437 18H16.0436C15.6003 18 15.164 17.8491 14.8149 17.5752L11.7405 15.1389L10.1538 16.6428C9.83247 16.9515 9.41057 17.1225 8.9658 17.1243C8.90626 17.1315 8.84566 17.1351 8.78579 17.1351C8.72592 17.1351 8.66537 17.1315 8.6058 17.1243C7.97129 16.9803 7.46646 16.4999 7.2882 15.8706L5.99129 11.4696L1.6884 10.026C1.26145 9.88697 0.978321 9.47469 0.999891 9.0234V8.3718C0.968261 7.93618 1.2171 7.53324 1.6191 7.3692L18.189 0.1602C18.4349 0.05481 18.6968 0.00091 18.9675 0C19.4913 0.01538 19.9806 0.23272 20.3454 0.612C20.858 1.10297 21.0892 1.81491 20.9637 2.5164L18.3384 16.1514C18.224 16.7817 17.8172 17.3328 17.2503 17.6256L16.9209 17.7957C16.6493 17.9294 16.346 18 16.0437 18Z" fill="black"/>
</svg>
