<svg width="22" height="16" viewBox="0 0 22 16" fill="none" xmlns="http://www.w3.org/2000/svg">
<path fill-rule="evenodd" clip-rule="evenodd" d="M9.7497 11.3487C9.628 11.3487 9.50682 11.3186 9.39926 11.2617C9.15368 11.1313 9.00056 10.8778 8.99966 10.6002V5.4C9.00056 5.12151 9.15368 4.86804 9.39926 4.7385C9.50682 4.68156 9.62801 4.65146 9.74971 4.65146C9.89987 4.65146 10.0451 4.69587 10.1697 4.7799L14.0604 7.38C14.2706 7.51713 14.3961 7.74894 14.3961 8.0001C14.3961 8.25126 14.2706 8.48307 14.0604 8.6202L10.1697 11.2203C10.0451 11.3043 9.89987 11.3487 9.7497 11.3487ZM11.0004 1.9998C8.88868 1.9998 6.74877 2.11093 4.64006 2.3301L3.18026 2.4804C2.47973 2.58215 1.97246 3.19232 2.00036 3.8997V12.0996C1.97244 12.8075 2.47969 13.418 3.18026 13.5198L4.64006 13.6701C6.74462 13.8893 8.88453 14.0004 11.0004 14.0004C13.1165 14.0004 15.2561 13.8893 17.3598 13.6701L18.8205 13.5198C19.521 13.418 20.0283 12.8075 20.0004 12.0996V3.8997C20.0283 3.19231 19.521 2.58216 18.8205 2.4804L17.3598 2.3301C15.251 2.11093 13.1114 1.9998 11.0004 1.9998ZM11.0265 16.0002H11.0004C8.82174 16.0002 6.62126 15.8857 4.46006 15.66L3.00026 15.5097C1.26353 15.3135 -0.0264434 13.8475 -0.000343363 12.0996V3.8997C-0.0264434 2.1527 1.26354 0.68666 3.00026 0.4896L4.39976 0.3402C6.57266 0.11446 8.78312 0 10.9698 0C13.1573 0 15.3678 0.11446 17.5398 0.3402L19.0005 0.4896C20.7367 0.68672 22.0263 2.15274 22.0002 3.8997V12.0996C22.0263 13.8475 20.7367 15.3135 19.0005 15.5097L17.5704 15.66C15.4083 15.8857 13.2066 16.0002 11.0265 16.0002Z" fill="black"/>
</svg>
